<!--?xml version="1.0" encoding="utf-8"?-->
<!-- Generator: Adobe Illustrator 22.1.0, SVG Export Plug-In . SVG Version: 6.00 Build 0)  -->
<svg version="1.1" id="_x35_" xmlns="http://www.w3.org/2000/svg" xmlns:xlink="http://www.w3.org/1999/xlink" x="0px" y="0px" viewBox="0 0 800 461.119" style="enable-background:new 0 0 800 461.119;" xml:space="preserve">
<style type="text/css">
	.st0{fill:#000;}
</style>
<g>
	<polygon class="st0" points="424.09,402.204 424.062,402.222 424.047,402.24 	"></polygon>
	<path class="st0" d="M640.572,144.347c-2.036,0-4.06,0.052-6.077,0.129l2.025-2.501c0.545-0.005,1.089-0.02,1.635-0.02h20.571
		c1.28,0,2.318-1.037,2.318-2.317c0-1.28-1.038-2.318-2.318-2.318v-0.001h-18.435l1.104-1.362h35.853
		c1.271,0,2.301-1.03,2.301-2.301c0-1.272-1.03-2.301-2.301-2.301l-84.283-0.001l-4.865-13.866
		c14.382-4.187,27.263-17.733,27.263-30.027c0-4.898-0.995-9.547-2.71-13.941c4.947-6.119,14.128-13.651,14.128-13.651
		c-0.123-0.441-0.216-0.89-0.297-1.341c16.819-4.205,13.785,26.775,17.74,35.596c4.126,9.195,8.249,6.024,8.249,6.024
		c-6.66-4.119-6.343-27.274-10.786-39.33c-3.318-9.007-9.648-15.001-12.635-17.456c0.344-0.785,0.583-1.257,0.583-1.257
		s-1.585-6.347-6.978-10.151c-1.69-1.192-2.818-1.293-3.572-0.872c-2.748-3.274-6.382-7.371-10.545-11.484
		c-4.623-4.566-9.886-9.143-15.316-12.606c-5.43-3.455-11.035-5.832-16.421-5.841c-3.53-0.007-6.962,1.062-9.972,3.504
		c-6.203,5.023-9.802,13.167-11.915,22.07c-0.161,0.683-0.299,1.38-0.443,2.073c-0.633,1.479-1.252,3.02-1.837,4.688
		c-0.727,2.07-1.417,4.289-2.068,6.666H534.7c-9.42,0-6.73,6.28-6.73,6.28l12.257,32.819l-0.598,0.213
		c-2.105,0.755-3.319,2.762-2.696,4.497c0.621,1.735,2.826,2.525,4.929,1.776l10.017-3.571c2.102-0.754,3.31-2.775,2.693-4.503
		c-0.621-1.727-2.83-2.526-4.932-1.771l-0.383,0.137c-0.492-1.12-1.066-2.432-1.685-3.859c0.746-8.242,1.757-15.493,2.996-21.821
		l1.675-0.024c-0.023,1.134-0.035,2.251-0.035,3.341c0,11.496,1.161,20.268,1.165,20.301l0.02,0.151l14.004,33.212
		c-1.601,0.154-3.24,0.31-4.874,0.465l-9.027-24.929l-11.389,4.124l2.679,7.4l-235.352,14.007l-2.538-8.085l-1.349,0.424
		l-13.675-43.562c0,0-1.177-3.041-3.706-6.363c1.219-0.677,3.186-1.764,5.605-3.075c4.865,0,12.918,0,16.041,0
		c1.051-0.009,1.979-0.289,2.945-0.671c1.676-0.681,3.465-1.764,5.339-3.079c2.799-1.973,5.736-4.473,8.215-6.904
		c1.239-1.216,2.361-2.414,3.297-3.536c0.48-0.579,0.907-1.13,1.282-1.668c5.186-1.439,8.642-3.31,10.369-5.618
		c0,0-3.067-7.673-17.641-6.14c-14.575,1.534-69.039,5.374-98.955,0.767c0,0-16.108,0-5.37,6.907
		c2.482,1.597,5.553,2.776,8.917,3.827c1.027,4.26,2.493,10.496,3.4,15.033c0.357,1.824,1.273,3.375,2.462,4.502
		c1.794,1.701,4.054,2.538,6.267,3.024c2.222,0.478,4.453,0.587,6.324,0.588c0.995,0,1.887-0.032,2.604-0.064
		c0.709-0.032,1.277-0.062,1.477-0.06c0.261-0.001,0.518-0.016,0.878-0.04c2.61-0.177,10.063-0.935,16.945-1.652
		c3.372-0.353,6.59-0.695,8.995-0.952c0.206,0.046,0.409,0.084,0.616,0.136l4.707,8.739l13.426,42.762l-0.973,0.305l2.852,9.084
		l-2.83,4.095c-9.675,4.47-16.11,9.854-20.283,14.621c-3.605,4.115-5.537,7.754-6.487,9.931l-0.969-0.391
		c0,0-1.825,5.166-5.471,9.633c-1.025-0.189-2.172-0.037-3.453,0.706c-5.128,2.987-5.593,8.678-5.636,9.691
		c-25.235-15.386-54.846-24.246-86.519-24.247C84.155,137.069,15.702,196.995,2,275.842l4.675,0.813
		c13.316-76.612,79.837-134.851,159.871-134.846c31.016,0.001,59.987,8.747,84.629,23.915l-1.309,2.949
		c-24.071-14.933-52.461-23.564-82.87-23.564c-86.944,0-157.438,70.481-157.438,157.43c0,86.948,70.494,157.429,157.438,157.429
		c64.814,0,120.475-39.175,144.614-95.136l34.019,10.659c0.072,0.214,0.166,0.393,0.317,0.48c0.234,0.133,0.569,0.07,0.951-0.082
		l4.692,1.471c0.132,0.805,0.314,1.493,0.726,1.655c0.444,0.175,1.116-0.293,1.823-0.857l3.885,1.218
		c0.261,0.866,0.549,1.634,1.018,1.744c0.428,0.099,0.969-0.36,1.534-0.945l1.714,0.537l0.805-2.568l0,0
		c1.12,0.188,1.786,4.004,2.918,4.107c1.141,0.103,2.468-3.541,3.618-3.517c1.141,0.018,2.348,3.712,3.489,3.65
		c1.136-0.06,1.944-3.863,3.091-4.004c1.135-0.145,2.87,3.335,4.005,3.11c1.135-0.225,1.394-4.107,2.513-4.417
		c1.123-0.31,3.356,2.866,4.46,2.464c1.098-0.396,0.803-4.273,1.881-4.747c1.08-0.481,3.779,2.324,4.832,1.753
		c0.265-0.146,0.407-0.493,0.486-0.938l18.655,24.999c2.592,3.481,7.533,4.2,11.017,1.619c3.478-2.617,4.187-7.54,1.592-11.027
		L404.844,363.3c1.062-0.378,4.041,0.852,4.631,0.085c0.702-0.901-1.644-3.999-1.008-4.941c0.634-0.949,4.388,0.037,4.951-0.949
		c0.554-0.986-2.2-3.7-1.716-4.723c0.49-1.021,4.345-0.584,4.759-1.636c0.414-1.053-2.711-3.354-2.374-4.431
		c0.338-1.083,4.212-1.199,4.476-2.294c0.259-1.102-3.158-2.946-2.978-4.066c0.182-1.12,4.012-1.776,4.107-2.909
		c0.106-1.138-3.532-2.477-3.512-3.615c0.019-1.144,3.703-2.348,3.645-3.492c-0.054-1.144-3.855-1.948-3.998-3.092
		c-0.146-1.137,3.329-2.878,3.11-4.004c-0.231-1.138-4.107-1.399-4.421-2.513c-0.313-1.126,2.867-3.365,2.48-4.455
		c-0.404-1.1-4.275-0.809-4.762-1.892c-0.484-1.071,2.319-3.779,1.753-4.826c-0.566-1.047-4.369-0.194-5.02-1.211
		c-0.603-0.943,1.795-3.998,1.116-4.905c-0.145-0.195-0.457-0.258-0.842-0.26l150.422-167.694l1.343,3.708l11.389-4.124
		l-5.23-14.444c1.835-0.224,3.693-0.452,5.546-0.685l4.446,10.544l-1.326,0.531l4.028,11.282c-1.701,1.342-2.806,3.787-3.263,4.958
		c-0.645-2.089-1.17-3.805-1.548-5.045c1.58-0.923,2.409-2.623,1.875-4.111c-0.618-1.729-2.827-2.519-4.926-1.777l-10.011,3.577
		c-2.105,0.755-3.316,2.763-2.696,4.498c0.549,1.548,2.371,2.336,4.249,1.952c0.424,1.565,1.168,4.243,2.228,7.836
		c-54.035,26.706-91.206,82.365-91.207,146.716v13.68c0,1.28,1.038,2.317,2.318,2.317c1.28,0,2.318-1.037,2.318-2.317v-13.68
		c0.001-43.897,17.79-83.617,46.56-112.387c12.036-12.032,25.992-22.134,41.363-29.825c0.319,1.044,0.661,2.148,1.019,3.289
		c-50.502,26.216-85.011,78.981-85.011,139.806c0,86.948,70.496,157.441,157.442,157.441c86.935,0,157.428-70.492,157.428-157.441
		C798,214.834,727.507,144.347,640.572,144.347z M317.67,38.564c-1.75,1.378-3.492,2.586-4.955,3.408
		c-0.73,0.411-1.39,0.724-1.912,0.915c-0.519,0.197-0.906,0.253-0.991,0.247c-1.559,0-4.352,0-7.36,0
		c7.501-3.885,15.887-7.96,20.762-9.467C321.539,35.321,319.597,37.051,317.67,38.564z M251.858,49.972
		c-0.599,0.048-1.057,0.071-1.112,0.068c-0.458,0.002-0.986,0.034-1.68,0.064c-0.687,0.031-1.506,0.06-2.401,0.06
		c-2.234,0.008-4.955-0.207-6.988-0.942c-1.019-0.362-1.846-0.838-2.42-1.391c-0.574-0.561-0.941-1.164-1.132-2.082
		c-0.759-3.796-1.88-8.664-2.828-12.655c9.522,2.602,20.267,5.224,27.399,12.875c-0.509,0.283-1.018,0.563-1.542,0.884l1.38,2.296
		c-2.385,0.241-4.588,0.457-6.312,0.616C253.275,49.854,252.469,49.924,251.858,49.972z M416.933,392.655
		c1.646-1.242,3.989-0.9,5.222,0.755c1.228,1.656,0.891,3.992-0.768,5.228c-1.648,1.223-3.985,0.894-5.218-0.761
		C414.937,396.228,415.275,393.885,416.933,392.655z M340.219,368.153l-2.558-0.801c0.986-0.287,1.952-0.557,2.334-0.219
		C340.201,367.317,340.246,367.692,340.219,368.153z M333.053,332.66l13.423,1.847l-6.073,2.06
		C340.403,336.567,334.48,339.33,333.053,332.66z M111.457,431.125C97.06,424.898,83.911,416.337,72.5,405.9l65.207-80.008
		l17.355-8.016c0.518,0.403,1.057,0.779,1.615,1.129l0.255,18.266L111.457,431.125z M157.014,343.219l1.382,99.085
		c-15.661-0.949-30.621-4.47-44.475-10.148L157.014,343.219z M26.939,302.538c0-9.824,1.021-19.408,2.945-28.661l98.235,26.978
		l-100.015,19.48C27.363,314.502,26.939,308.571,26.939,302.538z M334.461,323.562c1.382-4.978,3.874-10.922,8.288-13.844
		c0,0,5.404-2.909,8.307,2.501l4.686,8.812c0,0,0.892,2.53,0.257,5.496L334.461,323.562z M290.915,237.277l-79.613,46.041
		l-19.452-0.204l28.306-40.964l43.706-40.713C274.688,211.812,283.854,223.898,290.915,237.277z M184.886,294.921l7.128-0.449
		l-6.128,3.543C185.633,296.95,185.308,295.912,184.886,294.921z M185.566,292.206l2.59-3.747l14.002,0.147l-4.954,2.866
		L185.566,292.206z M207.392,288.661l29.425,0.309l-33.632,2.124L207.392,288.661z M216.536,283.373l75.597-43.718
		c6.921,13.745,11.635,28.779,13.7,44.656L216.536,283.373z M187.591,273.082l0.325-0.9l0.836-0.779L187.591,273.082z
		 M181.667,281.656l-0.927,1.341l-0.181-0.001l-0.003,0.269l-2.352,3.402c-1.133-0.803-2.346-1.499-3.64-2.047l9.084-8.461
		L181.667,281.656z M147.587,303.433l-7.785-2.137l7.963-1.551c-0.132,0.915-0.223,1.842-0.223,2.793
		C147.542,302.84,147.573,303.134,147.587,303.433z M193.242,313.416l0.315,0.232l-4.513-0.811L193.242,313.416z M186.35,300.83
		l11.647-6.735l75.113-4.743l33.332,0.35c0.385,4.23,0.61,8.506,0.61,12.836c0,5.794-0.393,11.494-1.077,17.103l-119.571-16.457
		c0.007-0.217,0.032-0.428,0.032-0.646C186.436,301.961,186.399,301.393,186.35,300.83z M356.609,306.28
		c-2.674-3.26-1.269-6.119-0.127-7.588l3.761,11.979L356.609,306.28z M351.828,291.212c-0.591,0.267-1.664-0.448-2.69-1.062
		l3.32,0.035C352.312,290.685,352.124,291.082,351.828,291.212z M345.782,294.486c-0.937,0.61-3.989-1.8-4.901-1.119
		c-0.846,0.634,0.651,4.187-0.143,4.856c-0.819,0.706-4.12-1.308-4.883-0.56c-0.767,0.755,1.169,4.089,0.466,4.881
		c-0.39,0.44-1.623,0.172-2.77-0.025c-0.059-4.219-0.273-8.4-0.635-12.539l13.678,0.144
		C346.225,291.396,346.604,293.955,345.782,294.486z M328.836,304.917h3.001c0.438,1.055,0.925,2.145,0.597,2.641
		c-0.641,0.943-4.387-0.042-4.947,0.937c-0.569,0.998,2.194,3.718,1.713,4.734c-0.496,1.022-4.34,0.584-4.759,1.631
		c-0.417,1.059,2.712,3.359,2.374,4.443c-0.239,0.754-2.202,1.041-3.452,1.518c0.694-5.999,1.063-12.098,1.063-18.284
		c0-4.26-0.175-8.478-0.508-12.652l4.228,0.044C328.594,294.866,328.836,299.863,328.836,304.917z M323.391,284.496
		c-4.897-42.906-27.031-80.576-59.319-105.901l1.827-2.643c5.412,4.218,10.558,8.765,15.395,13.626
		c24.874,25,41.706,58.062,46.282,94.962L323.391,284.496z M261.927,199.592l-34.701,32.326l26.928-38.97
		C256.823,195.074,259.422,197.282,261.927,199.592z M195.822,261.171l-5.929,5.524l33.305-92.443
		c8.311,3.646,16.196,8.073,23.57,13.193L195.822,261.171z M185.625,270.67l-13.963,13.007c-0.654-0.162-1.32-0.291-1.999-0.385
		l-6.546-17.438l12.274-103.1c15.988,0.945,31.254,4.565,45.355,10.432L185.625,270.67z M166.742,283.101
		c-2.021,0.026-3.965,0.359-5.792,0.956l1.481-12.44L166.742,283.101z M158.122,285.242c-0.45,0.232-0.887,0.484-1.316,0.749
		l-11.607-6.357l-62.593-88.865c12.358-9.345,26.316-16.676,41.388-21.533l36.397,96.947L158.122,285.242z M154.409,287.72
		c-0.742,0.63-1.43,1.319-2.069,2.052l-3.653-5.186L154.409,287.72z M150.652,292.009c-0.971,1.505-1.747,3.147-2.276,4.899
		l-14.363,2.797L30.485,271.275c3.439-15.078,9.285-29.236,17.155-42.026l95.735,52.429L150.652,292.009z M133.907,302.444
		l14.004,3.845c0.145,0.742,0.331,1.468,0.558,2.176l-12.439,15.262l-93.428,43.149c-6.998-13.5-11.877-28.269-14.162-43.891
		L133.907,302.444z M149.627,311.265c0.865,1.717,1.972,3.287,3.284,4.665l-11.364,5.248L149.627,311.265z M159.365,320.431
		c1.589,0.679,3.291,1.134,5.064,1.367l-4.904,10.121L159.365,320.431z M178.605,323.155l1.413,5.611l-6.113-7.083L178.605,323.155z
		 M179.835,317.113c0.945-0.833,1.805-1.755,2.573-2.755l16.004,2.873l15.283,11.278l-33.645-10.542L179.835,317.113z
		 M204.35,318.297l98.646,17.71c-1.567,6.389-3.58,12.597-5.99,18.607l-75.502-23.658L204.35,318.297z M303.597,333.403
		l-104.101-18.689l-0.729-0.538l105.802,14.563C304.272,330.303,303.945,331.857,303.597,333.403z M383.175,305.708l-7.534,8.635
		c-0.433,0.32-0.863,0.594-1.288,0.833l-6.349-20.225c6.932-0.084,13.568,1.957,13.568,1.957
		C388.472,300.863,383.175,305.708,383.175,305.708z M332.359,284.59c-5.493-45.707-29.265-85.754-63.758-112.547l33.088-47.884
		l50.431,160.638L332.359,284.59z M271.62,142.893l-0.528-0.213c0.886-2.015,2.74-5.496,6.269-9.455
		c3.289-3.686,8.039-7.786,14.814-11.492l-24.08,34.847l-0.472-0.262c0,0-0.468-1.138-1.356-2.38
		C267.355,151.029,269.25,146.441,271.62,142.893z M263.609,163.073l-2.434,3.523c-0.833-0.577-1.671-1.146-2.515-1.707
		C259.995,164.517,262.04,163.876,263.609,163.073z M255.127,168.241c1.127,0.74,2.243,1.493,3.35,2.259l-1.82,2.633
		c-1.124-0.78-2.259-1.546-3.405-2.298L255.127,168.241z M172.72,162.626l-11.643,97.795l-34.532-91.983
		c12.81-3.859,26.384-5.957,40.453-5.957C168.917,162.482,170.82,162.55,172.72,162.626z M80.506,192.42l59.381,84.305
		l-90.802-49.727C57.567,213.784,68.201,202.097,80.506,192.42z M43.82,369.254l88.369-40.813l-61.626,75.613
		C59.938,393.958,50.869,382.24,43.82,369.254z M161.067,442.443l-1.459-104.576l7.703-15.897c1.043-0.017,2.064-0.121,3.062-0.297
		l11.097,12.857l25.726,102.177c-12.737,3.812-26.223,5.886-40.199,5.886C165.008,442.593,163.035,442.525,161.067,442.443z
		 M185.353,339.03l65.394,75.769c-12.266,9.166-26.094,16.348-40.999,21.122L185.353,339.03z M252.848,413.152l-68.946-79.887
		l-2.31-9.174l45.389,14.221l56.627,41.787C275.2,392.715,264.791,403.869,252.848,413.152z M285.051,377.849l-50.26-37.088
		l60.106,18.833C292.059,365.944,288.765,372.041,285.051,377.849z M321.831,331.115l2.482,0.342c0.24,0.247,0.414,0.49,0.411,0.723
		c-0.025,1.138-3.712,2.349-3.654,3.492c0.058,1.144,3.852,1.954,3.995,3.092c0.147,1.138-3.322,2.872-3.1,4.004
		c0.225,1.132,4.104,1.4,4.415,2.513c0.316,1.126-2.866,3.354-2.474,4.461c0.396,1.095,4.278,0.803,4.759,1.887
		c0.484,1.071-2.322,3.772-1.759,4.818c0.569,1.059,4.373,0.195,5.023,1.218c0.605,0.943-1.789,3.991-1.114,4.904
		c0.633,0.846,4.186-0.651,4.856,0.141c0.516,0.6-0.415,2.518-0.667,3.81l-21.336-6.685
		C317.26,350.65,320.01,341.045,321.831,331.115z M360.734,368.369c-10.022-0.499-19.688-13.911-19.688-13.911
		c-3.132-7.309,4.007-7.997,4.007-7.997l11.212-2.355c8.374,0.067,9.901,7.912,9.901,7.912l0.454,9.967
		C366.875,368.119,360.734,368.369,360.734,368.369z M378.081,365.753c-2.869-3.847-1.969-4.862-1.969-4.862
		s-0.572-5.228,3.371-3.505l6.162,8.702C385.645,366.088,380.944,369.597,378.081,365.753z M399.542,355.724l-6.6-8.386
		c-0.514-4.266,4.326-2.227,4.326-2.227s1.227-0.59,4.102,3.256C404.245,352.219,399.542,355.724,399.542,355.724z M408.9,332.447
		c0,0-1.98,5.8-7.801,3.81l-9.427-3.274c0,0-3.143-1.66-4.553-5.149l15.077-16.808C404.691,314.663,410.802,324.617,408.9,332.447z
		 M533.256,146.778l-23.221-8.386c-1.195-0.432-2.514,0.187-2.946,1.382c-0.432,1.196,0.188,2.515,1.383,2.947l21.468,7.754
		L400.986,294.237c-0.039-0.1-0.074-0.204-0.149-0.262c-0.909-0.706-3.995,1.637-4.935,1.011c-0.949-0.634,0.04-4.395-0.949-4.954
		c-0.98-0.56-3.706,2.21-4.728,1.717c-1.029-0.487-0.581-4.345-1.637-4.759c-1.053-0.415-3.353,2.714-4.43,2.373
		c-1.089-0.335-1.195-4.217-2.296-4.479c-1.099-0.262-2.94,3.158-4.06,2.976c-1.116-0.178-1.782-4.005-2.915-4.115
		c-1.132-0.097-2.48,3.542-3.612,3.53c-1.144-0.024-2.346-3.718-3.49-3.657c-0.857,0.045-1.53,2.198-2.295,3.329l-52.315-166.638
		l235.913-14.04l0.977,2.696c-4.526,0.418-7.654,0.702-7.654,0.702c-3.806,7.297,1.585,13.637,1.585,13.637
		s4.453-0.488,10.817-1.223l0.172,0.474L533.256,146.778z M779.443,283.856l-102.693,6.484l88.955-51.439
		C772.669,252.733,777.399,267.87,779.443,283.856z M764.486,236.524l-93.72,54.193l-16.609,1.049l7.33-20.344l75.945-70.739
		C748.26,211.061,757.425,223.145,764.486,236.524z M585.028,430.369c-14.396-6.227-27.544-14.786-38.954-25.223l65.198-80.003
		l18.953-8.753l0.281,20.117L585.028,430.369z M630.589,342.454l1.382,99.095c-15.663-0.949-30.623-4.47-44.478-10.15
		L630.589,342.454z M500.513,301.777c0-9.823,1.021-19.405,2.945-28.657l98.234,26.979l-100.013,19.479
		C500.937,313.745,500.513,307.813,500.513,301.777z M597.567,168.481l3.647,9.714l-10.42,12.863
		c-2.116-6.226-4.107-12.221-5.926-17.791C589.002,171.474,593.238,169.877,597.567,168.481z M600.116,167.684
		c3.969-1.196,8.003-2.241,12.111-3.085l-9.067,11.193L600.116,167.684z M603.103,183.227l30.861,82.2l-1.593,13.384
		c-9.033-11.627-19.083-27.083-26.184-45.233c-4.705-12.023-9.369-24.991-13.621-37.342L603.103,183.227z M659.197,269.91
		l-15.338,14.286l-7.17-19.099l12.272-103.099c15.988,0.945,31.256,4.566,45.359,10.435L659.197,269.91z M696.772,173.498
		c14.32,6.284,27.39,14.882,38.727,25.342l-72.034,67.096L696.772,173.498z M642.511,290.895c-0.291-0.32-0.582-0.644-0.88-0.976
		l1.132-1.055l0.858,2.287C643.258,291.047,642.888,290.962,642.511,290.895z M634.356,292.615
		c-0.364,0.247-0.707,0.522-1.039,0.811l0.208-1.749C633.802,291.989,634.078,292.305,634.356,292.615z M629.428,298.643l-4.2,5.153
		l-11.854-3.256l15.292-2.978L629.428,298.643z M629.547,302.719c0.07,0.825,0.223,1.627,0.463,2.389l-1.969-0.541L629.547,302.719z
		 M632.799,309.665c0.632,0.624,1.343,1.164,2.111,1.623l-2.075,0.957L632.799,309.665z M649.121,294.756l1.15-0.072l-0.401,1.112
		C649.638,295.437,649.392,295.086,649.121,294.756z M646.874,292.226l-2.001-5.328l12.347-11.5l-5.964,16.552L646.874,292.226z
		 M641.748,286.163l-1.884,1.755c-1.642-1.884-3.372-3.944-5.159-6.16l1.297-10.899L641.748,286.163z M631.163,288.95l-0.659,5.537
		l-0.651,0.127l-7.601-10.792l8.519,4.665C630.902,288.643,631.033,288.796,631.163,288.95z M626.984,295.173l-19.396,3.778
		l-103.529-28.433c3.439-15.079,9.286-29.237,17.158-42.029l95.724,52.424L626.984,295.173z M607.48,301.689l15.906,4.369
		l-13.791,16.922l-93.416,43.145c-6.998-13.501-11.878-28.272-14.164-43.894L607.48,301.689z M626.198,306.829l3.908,1.074
		l0.078,5.567l-15.071,6.961L626.198,306.829z M632.876,315.166l4.365-2.016l2.935,3.4l-7.077,14.605L632.876,315.166z
		 M640.505,312.849c0.019,0,0.037,0.003,0.056,0.003c0.495,0,0.98-0.044,1.457-0.107l-0.576,1.19L640.505,312.849z M645.483,311.714
		l4.194,0.753l3.915,15.545l-10.25-11.876L645.483,311.714z M648.458,309.537c0.131-0.133,0.253-0.275,0.377-0.414l0.127,0.505
		L648.458,309.537z M650.798,305.996c0.111-0.269,0.212-0.545,0.302-0.826l0.12-0.069l0.721,0.254l0.572-1.002l1.709-0.989
		l12.905,9.525l-15.285-2.745L650.798,305.996z M651.814,298.27l1.358-3.769l12.406-0.784l-11.176,6.463L651.814,298.27z
		 M640.572,161.727c1.918,0,3.819,0.069,5.719,0.145l-11.641,97.794l-29.6-78.842l14.158-17.477
		C626.173,162.281,633.308,161.727,640.572,161.727z M628.246,144.826c-12.528,0.969-24.64,3.415-36.175,7.146
		c-0.194-0.986-0.52-1.955-1.024-2.92c12.53-3.882,25.724-6.253,39.371-6.907L628.246,144.826z M600.264,54.944
		c-0.767-0.803-1.546-1.597-2.345-2.37c-9.834-9.511-31.087-14.27-31.087-14.27c-3.159-1.149-5.564,0.458-6.94,1.85h-4.776
		c0.34-3.601,0.854-7.222,1.579-10.733c0.705-1.628,1.435-3.138,2.189-4.523c2.897-5.327,6.113-8.883,9.467-11.109
		c3.358-2.225,6.866-3.149,10.484-3.152c9.651-0.035,20.135,6.844,28.093,13.855c3.983,3.496,7.345,7.001,9.706,9.626
		c0.339,0.376,0.651,0.729,0.947,1.068c0,0.156,0.003,0.257,0.003,0.257C622.28,47.745,608.692,52.944,600.264,54.944z
		 M568.278,6.446c2.613-2.105,5.445-2.986,8.526-2.992c4.686-0.009,9.961,2.143,15.184,5.481c5.808,3.7,11.53,8.821,16.425,13.799
		c-8.15-7.121-18.86-14.364-29.579-14.399c-4.015-0.004-8.023,1.054-11.756,3.536c-2.675,1.778-5.194,4.288-7.525,7.601
		C561.623,14.116,564.452,9.525,568.278,6.446z M545.688,67.801c-2.255-5.27-4.531-10.755-5.158-12.841
		c-1.342-4.485,1.345-4.485,1.345-4.485l6.34-0.091C547.214,55.587,546.367,61.384,545.688,67.801z M555.636,73.515
		c-0.027-0.216-0.082-0.669-0.158-1.365c-0.322-2.961-0.968-9.976-0.968-18.483c0-1.1,0.013-2.229,0.036-3.374l4.268-0.062
		l22.61,7.734c12.688,3.486,22.202,21.25,21.886,28.863c-0.293,6.972-11.476,16.313-19.45,18.575l-5.696-16.234
		c-0.421-1.199-1.735-1.83-2.934-1.41c-1.199,0.421-1.83,1.735-1.409,2.935l5.421,15.449c-2.467,0.265-5.791,0.599-9.446,0.956
		L555.636,73.515z M575.083,119.633c2.846-0.362,5.637-0.728,8.246-1.087c0.084-0.011,0.166-0.035,0.249-0.046l5.585,15.918
		c0.324,0.924,1.191,1.539,2.172,1.539h44.096l-1.144,1.412c-16.087,0.374-31.595,3.077-46.211,7.772
		c-0.793-0.812-1.67-1.638-2.732-2.508l-4.229-13.742l-1.82,0.73L575.083,119.633z M578.548,153.519
		c0.75-0.304,1.502-0.603,2.259-0.895c0.299,0.145,0.584,0.322,0.833,0.573c0.433,0.433,1.002,1.107,1.636,1.907
		c-1.258,0.492-2.509,0.998-3.751,1.521C579.186,155.55,578.858,154.509,578.548,153.519z M626.356,283.028l-7.592-4.158
		l-62.583-88.857c5.528-4.18,11.368-7.969,17.493-11.305C583.978,208.316,601.712,251.352,626.356,283.028z M554.08,191.664
		l59.372,84.296l-90.792-49.723C531.142,213.026,541.777,201.341,554.08,191.664z M517.397,368.502l88.357-40.81L544.138,403.3
		C533.514,393.204,524.445,381.488,517.397,368.502z M634.641,441.688l-1.459-104.586l8.892-18.352l12.969,15.026l25.73,102.174
		c-12.738,3.813-26.226,5.888-40.202,5.888C638.582,441.838,636.61,441.77,634.641,441.688z M658.928,338.277l65.391,75.765
		c-12.265,9.165-26.09,16.347-40.993,21.121L658.928,338.277z M726.42,412.394l-68.944-79.882l-4.918-19.529l19.424,3.488
		l85.193,62.875C748.769,391.96,738.361,403.113,726.42,412.394z M677.92,317.538l98.647,17.713
		c-3.693,15.056-9.827,29.144-17.948,41.845L677.92,317.538z M777.168,332.648l-104.102-18.692l-16.323-12.047l14.818-8.568
		l108.219-6.833c0.545,5.017,0.844,10.108,0.844,15.27C780.624,312.389,779.404,322.711,777.168,332.648z"></path>
	<polygon class="st0" points="295.341,103.941 295.341,103.941 295.341,103.94 	"></polygon>
	<polygon class="st0" points="573.822,90.694 573.822,90.694 573.821,90.694 	"></polygon>
</g>
</svg>
