<!--?xml version="1.0" encoding="utf-8"?-->
<!-- Generator: Adobe Illustrator 22.1.0, SVG Export Plug-In . SVG Version: 6.00 Build 0)  -->
<svg version="1.1" id="_x36_" xmlns="http://www.w3.org/2000/svg" xmlns:xlink="http://www.w3.org/1999/xlink" x="0px" y="0px" viewBox="0 0 800 357.363" style="enable-background:new 0 0 800 357.363;" xml:space="preserve">
<style type="text/css">
	.st0{fill:#2177AD;}
	.st1{fill:#C41827;}
	.st2{fill:#040000;}
	.st3{fill:#26903D;}
	.st4{fill:#DFB627;}
</style>
<g>
	<path class="st0" d="M123.388,0.893C56.344,0.902,2.005,55.239,2,122.281c0.005,67.051,54.344,121.393,121.388,121.393
		c3.345,0,6.656-0.142,9.93-0.401c-0.169-2.732-0.262-5.463-0.262-8.195c0-3.028,0.109-6.052,0.319-9.071
		c-3.286,0.315-6.615,0.484-9.987,0.484c-28.801-0.005-54.797-11.656-73.682-30.523c-18.868-18.885-30.515-44.878-30.52-73.686
		c0.005-28.794,11.652-54.797,30.52-73.682c18.885-18.866,44.881-30.509,73.682-30.518c28.805,0.009,54.801,11.651,73.686,30.518
		c18.868,18.884,30.513,44.888,30.517,73.682c-0.005,28.808-11.649,54.802-30.517,73.686c-8.359,8.355-18.118,15.286-28.897,20.431
		c-1.202,6.129-1.816,12.382-1.816,18.679c0,0.255,0.005,0.511,0.005,0.757c45.829-17.352,78.411-61.643,78.415-113.553
		C244.778,55.239,190.432,0.902,123.388,0.893z"></path>
	<path class="st1" d="M676.605,0.893c-61.786,0-112.78,46.16-120.407,105.878c5.716,0.748,11.366,1.892,16.91,3.397
		c2.77-23.946,13.633-45.375,29.813-61.569c18.884-18.866,44.883-30.509,73.684-30.518c28.803,0.009,54.799,11.651,73.686,30.518
		c18.868,18.884,30.513,44.888,30.52,73.682c-0.007,28.808-11.651,54.802-30.52,73.686c-18.887,18.867-44.883,30.518-73.686,30.523
		c-28.801-0.005-54.8-11.656-73.684-30.523c-13.547-13.558-23.365-30.777-27.837-50.077c-5.953-2.403-12.149-4.2-18.504-5.363
		c8.799,58.382,59.177,103.146,120.024,103.146c67.046,0,121.39-54.342,121.395-121.393C797.995,55.239,743.652,0.902,676.605,0.893
		z"></path>
	<path class="st2" d="M399.999,226.49c-28.804-0.005-54.8-11.656-73.682-30.523c-13.551-13.558-23.374-30.787-27.839-50.086
		c-5.965-2.408-12.151-4.205-18.51-5.363c8.802,58.387,59.177,103.156,120.032,103.156c3.342,0,6.651-0.142,9.923-0.401
		c-0.173-2.727-0.255-5.455-0.255-8.195c0-3.028,0.109-6.062,0.319-9.071C406.698,226.321,403.366,226.49,399.999,226.49z
		 M399.999,0.893c-61.791,0-112.783,46.155-120.41,105.878c5.712,0.748,11.362,1.888,16.912,3.397
		c2.768-23.946,13.629-45.375,29.816-61.569c18.882-18.866,44.878-30.509,73.682-30.518c28.801,0.009,54.799,11.651,73.681,30.518
		c18.876,18.884,30.518,44.888,30.523,73.682c-0.005,28.808-11.647,54.802-30.523,73.686c-8.361,8.355-18.123,15.286-28.901,20.431
		c-1.201,6.111-1.808,12.354-1.808,18.679c0,0.255,0.005,0.511,0.005,0.757c45.829-17.352,78.406-61.638,78.413-113.553
		C521.382,55.239,467.045,0.902,399.999,0.893z"></path>
	<path class="st3" d="M539.113,130.882c28.803,0.005,54.799,11.647,73.682,30.523c13.544,13.549,23.369,30.769,27.831,50.05
		c5.972,2.403,12.172,4.205,18.513,5.368c-8.813-58.377-59.185-103.128-120.026-103.128c-3.343,0-6.651,0.137-9.931,0.405
		c0.176,2.728,0.263,5.459,0.263,8.182c0,3.037-0.114,6.061-0.328,9.08C532.409,131.041,535.74,130.882,539.113,130.882z
		 M642.61,247.221c-2.775,23.928-13.633,45.348-29.815,61.547c-18.882,18.87-44.878,30.513-73.682,30.517
		c-28.801-0.005-54.8-11.647-73.682-30.517c-18.869-18.89-30.513-44.884-30.518-73.691c0.005-28.795,11.649-54.798,30.518-73.673
		c8.361-8.359,18.116-15.296,28.885-20.431c1.208-6.124,1.824-12.386,1.824-18.693c0-0.246-0.004-0.501-0.004-0.752
		c-45.83,17.352-78.407,61.647-78.413,113.549c0.007,67.05,54.347,121.392,121.39,121.392c61.786,0,112.777-46.151,120.41-105.859
		C653.799,249.862,648.156,248.731,642.61,247.221z"></path>
	<path class="st4" d="M366.003,247.207c-2.775,23.942-13.634,45.362-29.814,61.561c-18.886,18.87-44.882,30.513-73.684,30.517
		c-28.803-0.005-54.8-11.647-73.682-30.517c-18.873-18.89-30.516-44.884-30.523-73.691c0.007-28.795,11.649-54.798,30.523-73.673
		c8.359-8.359,18.116-15.3,28.89-20.435c1.206-6.129,1.821-12.39,1.821-18.688c0-0.246-0.011-0.501-0.011-0.752
		c-45.822,17.357-78.407,61.647-78.411,113.549c0.004,67.05,54.344,121.392,121.392,121.392
		c61.791,0,112.787-46.155,120.408-105.873C377.188,249.838,371.542,248.712,366.003,247.207z M262.506,130.882
		c28.801,0.005,54.797,11.647,73.684,30.523c13.547,13.554,23.365,30.773,27.837,50.068c5.958,2.413,12.142,4.205,18.504,5.363
		c-8.799-58.387-59.177-103.142-120.024-103.142c-3.347,0-6.658,0.137-9.935,0.405c0.173,2.728,0.267,5.459,0.267,8.182
		c0,3.037-0.116,6.061-0.326,9.08C255.8,131.041,259.134,130.882,262.506,130.882z"></path>
	<path class="st0" d="M227.592,122.281c0,9.103-1.165,17.923-3.352,26.322h17.676c1.875-8.477,2.866-17.279,2.866-26.322
		c0-7.898-0.766-15.619-2.205-23.089h-17.556C226.701,106.611,227.592,114.341,227.592,122.281z"></path>
</g>
</svg>
